<svg version="1" xmlns="http://www.w3.org/2000/svg" width="889.333" height="889.333" viewBox="0 0 667.000000 667.000000"><path d="M307 110.5c-16.1 2.4-17.5 2.6-21 3.5-1.9.5-4.6 1.1-6 1.4-15.6 3.1-43.4 14.5-62 25.6-7.9 4.6-24.6 16.9-31 22.8l-5.5 5.1-21.8-.1c-12 0-22.1.2-22.4.5-.3.4-.5 13.3-.5 28.9l.1 28.3-3.4 7.1c-3 6.1-5.4 11.5-6 13.4-.1.3-.6 1.6-1.2 3-3.2 7.7-8.3 24.3-9.8 32-.3 1.4-.8 3.6-1 5-.3 1.4-.8 3.7-1 5.2-.3 1.6-.7 4-1 5.5-2 10.7-2.7 46.3-1.1 57.8.4 3.3 1 7.6 1.2 9.5.1 1.9.5 4.4.8 5.5.2 1.1.9 4.2 1.6 7 2.6 11.5 3.4 14.4 6.1 22.5 3.6 10.8 8.6 22.7 12.9 31 1.9 3.6 3.4 6.7 3.5 7 0 .3.4 1.1.9 1.9.7 1 .2 1.2-2 .7-3.5-.7-7.3-1.2-13.9-2-19.3-2.3-30.4-2.9-54.2-3-22.5-.1-23.2 0-26.2 2.2-1.7 1.2-3.2 2.2-3.5 2.2-.4 0-22 12.5-32.9 19.1C4 460.7 1.4 462 .9 462c-1.2 0-1.3-.6 1.7 9.1 1.4 4.6 2.7 8.8 2.8 9.4.1.5 1 3.6 1.9 6.7 1 3.2 1.7 6 1.7 6.3 0 .3.7 1.9 1.5 3.5.9 1.7 1.3 3 1.1 3-.3 0 .2 1.9 1 4.2.8 2.3 1.1 5 .7 6.2-.4 1.2-.8 2.3-.8 2.6-.1.3-.5 1.8-1 3.5-.4 1.6-1.4 4-2.1 5.3-.8 1.2-1.2 2.2-.9 2.2.2 0 0 1.2-.5 2.6-.7 1.8-.7 3.9.1 6.7 1.4 5 1.7 6.7 1.8 8.7.3 3.6 1.5 4.1 6.7 2.5 4-1.1 15.3-3.7 30.9-7.1 1.1-.2 4-.7 6.5-1 2.5-.3 4.7-.8 5-.9.3-.2 2.4-.6 4.6-.9 2.2-.4 4.9-.8 5.9-1 5.1-.9 14-2 25-3.1 3.9-.3 8.3-.8 9.8-1.1 14-2.3 71.4-2.3 89.7.1 11.4 1.5 13.8 1.8 16.5 2.1 1.7.1 3 .3 3 .4 0 .1 1.4.4 3 .6 7.1 1 22 4.4 32 7.2 13.1 3.7 31 10.3 35.3 13 1.2.8 2.2 1.1 2.2.7 0-.4.7-.2 1.5.5 1.2 1 3.3 6.4 3.9 10 .1.3 1.2 2.6 2.4 5.2 6.4 12.9 22 20.3 42.1 19.7 8.7-.2 17.3-2 22.2-4.6 8.2-4.3 17.9-17.8 18.1-25.2.1-1.7.6-3.5 1.2-4 2.1-1.7 35.5-13 40.1-13.6 1.1-.1 2.7-.5 3.5-.8 1.3-.5 5.2-1.5 8.5-2.2 3.4-.8 23.3-4.8 25.4-5.1 1.4-.2 3.6-.6 4.8-.9 1.2-.3 4.4-.8 7-1 2.7-.3 6.2-.7 7.8-1 3.3-.4 13.7-1.4 23-2.1 15.2-1.2 53.6-.6 69 1.1 2.2.2 6.5.7 9.5 1 3 .3 6.9.8 8.5 1.1 1.7.3 4.4.7 6 .9 3.5.3 18.9 3.1 25.5 4.5 2.5.6 5.6 1.3 7 1.6 1.4.2 3.3.7 4.2 1 .9.3 2.5.6 3.5.8 2.3.5 18.3 5.2 20.4 6.1 1.8.7 2.4-.6 5.9-11.7 1.5-4.7 1.9-7.2 1.2-8.5-.6-1-2.2-5.4-3.6-9.8l-2.6-7.9 4.6-15.1c2.5-8.2 5.7-18.4 7-22.5 2.9-8.9 2.9-9.6.7-10.3-2.4-.8-7.7-4-8.1-5-.2-.4-.8-.7-1.3-.7s-6.1-3.2-12.5-7c-6.4-3.9-11.9-7-12.1-7-.2 0-2.3-1.2-4.6-2.8l-4.2-2.8-22 .2c-20.3.1-38.1.8-44.4 1.8-2.6.4-11 1.4-18.6 2.2-5.3.5-6.8.8-8.2 1.7-1.7 1.1-1.6-.1.5-4 4.3-8.2 9.2-18.6 9.2-19.7 0-.7.4-1.6.9-2.2.8-.8 4.9-11.2 5.4-13.9.2-.6.5-1.5.8-2 .4-.6 1-2.4 1.4-4 .4-1.7.9-3.9 1.2-5 .3-1.1.9-4.5 1.4-7.5.5-3 1.1-6.4 1.3-7.5 1.1-5.4 2-10.3 3.1-17 2.2-13.9 2.3-46.3.1-58.5-.3-1.4-.7-4.5-1-7-1.8-14-9-37.3-16.6-53.7l-4.8-10.1.2-30.1.1-30.1-7-.1h-23.4l-16.3.1-5.1-4.6c-17.9-16.1-41.9-30.7-65.7-39.9-16.1-6.2-19.4-7.4-22-7.8-1.4-.2-3.2-.6-4-1-1.5-.5-20.7-4.1-28.5-5.3-8-1.2-44-1.1-52.5.1z"/></svg>